<?xml version="1.0" encoding="UTF-8"?>
<svg id="Layer_2" xmlns="http://www.w3.org/2000/svg" version="1.1" viewBox="0 0 155.6 163">
  <!-- Generator: Adobe Illustrator 30.5.1, SVG Export Plug-In . SVG Version: 2.1.4 Build 3)  -->
  <defs>
    <style>
      .st0 {
        fill: #6C1D35;
      }
    </style>
  </defs>
  <g id="Layer_1-2">
    <g>
      <path class="st0" d="M109.2,128c-4.8-6.6-36.1-53.2-36.1-53.2,0,0,7.1-1.1,16.2-5.8,9.1-4.7,21-24.1,14.2-42.5C96.3,6.7,78.1,0,60.5,0H.8c-.4,0-.8.4-.8.8v2.9c0,.5.4.8.8.8h6.6c7,0,12.8,5.7,12.8,12.8v107.2c0,8.2-6.6,14.8-14.8,14.8H.6c-.3,0-.6.3-.6.6v3.3c0,.3.3.6.6.6h50.9c.3,0,.6-.3.6-.6v-3.3c0-.3-.3-.6-.6-.6h-.7c-5.7,0-10.3-4.6-10.3-10.3v-50.7h12.8l31.9,49c6.3,9.6,17,15.4,28.5,15.4h12.8v-3.4h-3.4c-3.9,0-9.1-4.7-13.9-11.2ZM51.7,73h-11.3V5.4h22.8c13.7,0,20.5,14.9,20.5,23.8s2.1,27.8-8.5,37c-7.5,6.5-13.5,6.9-23.6,6.9h0Z"/>
      <g>
        <path class="st0" d="M69.8,64.7c.8-.6,1.6-1.2,2.5-2,7.6-6.6,7.3-20.5,7-29.6,0-1.4,0-2.8,0-4s-.1-2.4-.4-3.7c-.7.6-1.3,1.1-1.9,1.8-7.4,7.6-11.1,24.1-7.2,37.5h0Z"/>
        <path class="st0" d="M105.6,19.9c10.2-1.2,18.2,2.5,22.5,6.9,5.8,6,5.7,16.9,5.2,22-.1,1.5,1.2,2.8,2.7,2.6,8.1-.8,13.7-5.3,13.8-14.8.1-10.6-15.4-21.5-32.7-21.5s-9.3.2-13.8.8c.8,1.2,1.5,2.5,2.2,3.9h0Z"/>
        <path class="st0" d="M130.1,85.9c-9-4.3-22.6-11.6-32.6-17.6-2,2-4.2,3.3-6.1,4.7-6.2,4.3-12.5,4.6-12.5,4.6,3.9,5.8,10,10.8,16.1,14.3,7.7,4.4,16.5,8,23.2,11,15,6.7,20.1,17.2,19.5,27.6-.7,10.5-7,23.5-19.9,25.9-6.8,1.3-16,1.9-23.8-.8-6.9-2.4-28.1-13.2-35-44.3-2.2-9.9-2-15.7-2-18.5,0-1.4-.5-2.8-1.2-3.9l-1.1-1.6c-.4-.7-1.4-.7-1.8,0-2.7,3.8-9.9,16-6.3,33.5,4.4,21.3,20.8,32.2,35.2,37.6,14.7,5.5,38.6,7.6,54.9-3.5,13-8.9,18.8-18,18.8-35.8s-8.4-25.2-25.5-33.4h0Z"/>
      </g>
    </g>
  </g>
</svg>