<?xml version="1.0" encoding="UTF-8"?>
<svg id="Layer_2" xmlns="http://www.w3.org/2000/svg" version="1.1" viewBox="0 0 1286.1 118.5">
  <!-- Generator: Adobe Illustrator 30.5.1, SVG Export Plug-In . SVG Version: 2.1.4 Build 3)  -->
  <defs>
    <style>
      .st0 {
        fill: #fff;
      }
    </style>
  </defs>
  <g id="Layer_1-2">
    <g>
      <g>
        <path class="st0" d="M11.9,18.7c0,3.8.9,7,2.8,9.7,1.9,2.7,4.3,5.1,7.3,7.2s6.2,4.2,9.6,6.3c3.5,2.1,6.8,4.3,10.1,6.6,3.2,2.3,5.9,5.1,8,8.2s3.2,7,3.2,11.5-1.2,8.7-3.6,12.4-5.8,6.6-10.1,8.7c-4.4,2.2-9.6,3.2-15.7,3.2s-4.9-.2-7.4-.6c-2.5-.4-4.9-1-7.1-1.8s-4.3-1.7-6.2-2.8c-.4-.3-.7-.6-.9-1-.2-.4-.4-.9-.4-1.7L0,64.7c0-.5.1-.7.6-.8.5,0,.8.1.9.5.9,2.9,2,5.9,3.4,8.9,1.4,3,3.1,5.8,5.1,8.2,2,2.5,4.3,4.5,7.1,6.1s6,2.4,9.6,2.4,5-.5,7.4-1.4c2.4-.9,4.3-2.5,5.8-4.7,1.5-2.2,2.2-5.3,2.2-9.2s-1-8.3-3-11.4-4.5-5.8-7.6-8c-3.1-2.2-6.4-4.4-9.9-6.5-3.3-2.1-6.5-4.2-9.5-6.5-3.1-2.2-5.5-4.9-7.4-7.8-1.9-3-2.8-6.5-2.8-10.8s1.3-9.2,4-12.5c2.7-3.3,6.1-5.7,10.3-7.3,4.2-1.6,8.5-2.4,12.9-2.4s5.9.3,8.9.8,5.7,1.4,8.2,2.4c.8.4,1.4.8,1.7,1.2s.4.9.4,1.3l.7,17.6c0,.3-.2.5-.7.6-.5,0-.8,0-1-.4-.3-1.6-.9-3.6-1.8-6-.9-2.4-2.2-4.7-3.8-7-1.6-2.3-3.6-4.2-6.1-5.8-2.5-1.5-5.5-2.3-9.1-2.3s-6,.7-8.2,2c-2.2,1.4-3.8,3.1-4.9,5.4-1.1,2.2-1.7,4.7-1.7,7.5h0Z"/>
        <path class="st0" d="M77.1,79.6V14.4c0-2.7-.3-4.8-.8-6.1-.6-1.4-1.7-2.3-3.4-2.8-1.7-.5-4.2-.8-7.5-.8s-.4-.3-.4-.8.1-.9.4-.9c2.3,0,5,0,7.9.2,2.9.1,6,.2,9.2.2s7.1,0,10.1-.2,5.6-.2,8-.2.3.3.3.8,0,.8-.3.8c-3.5,0-6.1.3-7.8.8s-2.9,1.5-3.5,3c-.6,1.4-.9,3.5-.9,6.2v64.9c0,2.7.3,4.8.8,6.2.6,1.4,1.7,2.3,3.5,2.8s4.4.7,7.9.7.3.3.3.8,0,.8-.3.8c-2.4,0-5.1,0-8-.1-2.9,0-6.2-.1-10-.1s-6.3,0-9.3.1-5.7.1-8,.1-.3-.3-.3-.8,0-.8.3-.8c3.4,0,5.9-.2,7.7-.7,1.7-.5,2.9-1.4,3.4-2.8.6-1.4.8-3.5.8-6.2h0ZM82.3,46.8v-3.2h62.2v3.2h-62.2ZM139.6,14.7c0-2.7-.3-4.8-.9-6.2s-1.7-2.4-3.4-3c-1.7-.6-4.3-.8-7.9-.8s-.4-.3-.4-.8.1-.9.4-.9c2.2,0,4.9,0,7.8.2s6.3.2,9.9.2,6.3,0,9.4-.2c3.1-.1,5.7-.2,8-.2s.4.3.4.8-.1.8-.4.8c-3.3,0-5.8.3-7.5.8-1.7.5-2.9,1.5-3.4,2.8-.6,1.4-.9,3.4-.9,6.1v65.2c0,2.7.3,4.8.9,6.2.6,1.4,1.7,2.3,3.4,2.8,1.7.5,4.2.7,7.5.7s.4.3.4.8-.1.8-.4.8c-2.2,0-4.9,0-8-.1s-6.2-.1-9.4-.1-7,0-9.9.1c-3,0-5.6.1-7.8.1s-.4-.3-.4-.8.1-.8.4-.8c3.6,0,6.2-.2,7.9-.7,1.7-.5,2.8-1.4,3.4-2.8.6-1.4.9-3.5.9-6.2V14.7h0Z"/>
        <path class="st0" d="M211.3,2.5c7.8,0,13.8,1.7,18,5,4.2,3.3,6.3,7.8,6.3,13.3s-1.5,9.9-4.4,14.1-6.9,7.4-11.8,9.7c-4.9,2.3-10.3,3.5-16,3.5s-2.3,0-3.5,0-2.4-.1-3.4-.2v31.7c0,2.7.3,4.8.8,6.2.5,1.4,1.6,2.3,3.2,2.8s4.1.7,7.4.7.4.3.4.8-.1.8-.4.8c-2.4,0-4.9,0-7.8-.1s-5.9-.1-9.3-.1-6.2,0-9.1.1c-2.9,0-5.5.1-7.9.1s-.4-.3-.4-.8.1-.8.4-.8c3.2,0,5.6-.2,7.2-.7,1.6-.5,2.8-1.4,3.4-2.8.6-1.4.9-3.5.9-6.2V14.4c0-2.7-.3-4.8-.8-6.1-.6-1.4-1.6-2.3-3.2-2.8-1.6-.5-4-.8-7.3-.8s-.3-.3-.3-.8,0-.9.3-.9c2.4,0,4.9,0,7.8.2,2.9.1,5.9.2,9.1.2s4.2,0,6.6-.2,4.9-.3,7.4-.4c2.5-.1,4.7-.2,6.6-.2h0ZM224,25.4c0-5.3-.7-9.4-2.1-12.3-1.4-3-3.4-5.1-6.1-6.3s-5.8-1.8-9.4-1.8-6.1.6-7.7,1.9c-1.5,1.3-2.3,3.9-2.3,7.8v29.7c1.3,0,2.8.2,4.3.3s2.9.1,4,.1c7.1,0,12.1-1.6,15-4.8,2.9-3.2,4.3-8.1,4.3-14.6ZM234.5,91c-1,0-2.8-1.9-5.4-5.8-2.5-3.8-5.5-9.1-8.8-15.8-3.3-6.7-6.8-14.4-10.4-23.2l8.6-3.2c5.3,11.3,9.9,20.3,13.8,27,3.9,6.8,7.6,11.7,10.8,14.7,3.3,3.1,6.5,4.6,9.7,4.6s.4.3.4.8-.1.8-.4.8h-18.4,0Z"/>
        <path class="st0" d="M396.2,91.6c-2.8,0-6.3-.1-10.4-.4s-7.9-.4-11.4-.4-6.3,0-9.2.1c-3,0-5.6.1-8,.1s-.3-.3-.3-.8,0-.8.3-.8c3.3,0,5.8-.2,7.5-.7,1.7-.5,2.8-1.4,3.4-2.8.6-1.4.9-3.5.9-6.2V14.4c0-2.7-.3-4.8-.9-6.1-.6-1.4-1.6-2.3-3.2-2.8-1.6-.5-4-.8-7.3-.8s-.4-.3-.4-.8.1-.9.4-.9c2.4,0,5,0,7.8.2,2.9.1,5.9.2,9.1.2s6.6-.1,10.4-.3,6.9-.3,9.5-.3c10,0,18.6,1.9,26,5.6,7.4,3.8,13.1,8.9,17.2,15.3s6.2,13.8,6.2,21.8-1.2,13.4-3.7,19.1c-2.5,5.7-5.9,10.5-10.4,14.5-4.4,4-9.5,7.1-15.2,9.2-5.7,2.2-11.8,3.2-18.2,3.2h0ZM394.8,89c7,0,13.3-1.6,18.7-4.7s9.6-7.7,12.8-13.7c3.1-6.1,4.6-13.4,4.6-22s-1.5-15.5-4.4-22c-2.9-6.5-7-11.7-12.2-15.6-5.2-3.9-11.4-5.8-18.7-5.8s-9.6.6-12,1.7-3.6,3.8-3.6,7.9v63.4c0,3.8.9,6.5,2.8,8.3s5.9,2.7,12,2.7h0Z"/>
        <path class="st0" d="M494.3,91.6c-2.8,0-6.3-.1-10.4-.4s-7.9-.4-11.4-.4-6.3,0-9.2.1c-3,0-5.6.1-8,.1s-.3-.3-.3-.8,0-.8.3-.8c3.3,0,5.8-.2,7.5-.7,1.7-.5,2.8-1.4,3.4-2.8.6-1.4.9-3.5.9-6.2V14.4c0-2.7-.3-4.8-.9-6.1-.6-1.4-1.6-2.3-3.2-2.8-1.6-.5-4-.8-7.3-.8s-.4-.3-.4-.8.1-.9.4-.9c2.4,0,5,0,7.8.2,2.9.1,5.9.2,9.1.2s6.6-.1,10.4-.3,6.9-.3,9.5-.3c10,0,18.6,1.9,26,5.6,7.4,3.8,13.1,8.9,17.2,15.3s6.2,13.8,6.2,21.8-1.2,13.4-3.7,19.1c-2.5,5.7-5.9,10.5-10.3,14.5-4.4,4-9.5,7.1-15.2,9.2-5.7,2.2-11.8,3.2-18.2,3.2h0ZM492.8,89c7,0,13.3-1.6,18.7-4.7,5.4-3.1,9.7-7.7,12.8-13.7,3.1-6.1,4.7-13.4,4.7-22s-1.5-15.5-4.4-22c-2.9-6.5-7-11.7-12.2-15.6-5.2-3.9-11.4-5.8-18.7-5.8s-9.6.6-12,1.7-3.6,3.8-3.6,7.9v63.4c0,3.8.9,6.5,2.8,8.3s5.9,2.7,12,2.7h0Z"/>
        <path class="st0" d="M646.1,89.3c.5,0,.7.3.7.8s-.2.8-.7.8c-2.7,0-5.5,0-8.4-.3-2.9-.2-5.7-.3-8.4-.3s-5.6,0-7.8.3-4.7.3-7.4.3-.6-.3-.6-.8.2-.8.6-.8c4.6,0,7.4-.7,8.5-2.2,1-1.5.5-4.3-1.5-8.7l-30.3-63,4.5-6.8-27.5,63.7c-2.4,5.7-2.6,10-.4,12.8,2.2,2.8,6.2,4.2,12.1,4.2s.7.3.7.8-.2.8-.7.8c-2.8,0-5.4,0-7.8-.3s-5.3-.3-8.9-.3-6.3,0-8.4.3-4.7.3-7.7.3-.6-.3-.6-.8.2-.8.6-.8c2.5,0,4.7-.5,6.6-1.5,1.9-1,3.7-2.8,5.4-5.4s3.6-6.4,5.7-11.3L594.5,2c0-.3.4-.5,1-.5.6,0,.9.1,1,.5l33.8,69.7c2.2,4.6,4.2,8.2,5.8,10.8,1.6,2.6,3.3,4.4,4.9,5.3,1.6,1,3.3,1.5,5.1,1.5h0ZM573.3,54.2l1.7-3.1h38.3l1,3.1h-41Z"/>
        <path class="st0" d="M688.3,72c0-4.1,1-7.8,3.1-10.9,2.1-3.1,4.7-6.1,7.9-8.7,3.2-2.7,6.6-5.3,10.2-7.8,3.6-2.5,7-5.2,10.2-8s5.8-5.8,7.9-9c2.1-3.2,3.1-6.9,3.1-11.1s-1.1-7.5-3.2-9.8-5-3.5-8.5-3.5-5.8,1-7.5,3c-1.7,2-2.5,5.1-2.5,9.4s1.1,10,3.3,15.1,5.2,10.2,8.9,15.2,8,9.8,12.8,14.4c4.8,4.6,9.8,8.9,14.9,12.8,6.2,4.6,11.9,8.2,17,10.9s9.4,4.4,12.7,5.1c.4,0,.5.4.5.9s-.2.8-.5.8h-17.8c-1.1,0-2.6-.4-4.5-1.1-1.9-.8-4.3-2.1-7.3-4-3-1.9-6.8-4.7-11.3-8.4-4.4-3.6-8.8-7.5-13.3-11.8-4.5-4.3-8.5-8.7-12.2-13.4s-6.7-9.2-8.9-13.6c-1.2-2.6-2.2-5.2-3-7.7-.8-2.5-1.1-5-1.1-7.5,0-4.4,1-8.4,3-11.9,2-3.5,4.9-6.3,8.5-8.4,3.7-2.1,8-3.2,13-3.2s5.7.4,8.4,1.3c2.7.9,4.8,2.4,6.5,4.4,1.6,2.1,2.5,4.8,2.5,8.2s-1,7.4-3,10.4-4.7,5.7-7.9,8.2c-3.2,2.5-6.6,4.9-10.2,7.2s-7,4.7-10.1,7.2c-3.2,2.5-5.8,5.3-7.8,8.5-2,3.1-3,6.7-3,10.7s1,7.4,3,10.7c2,3.3,4.9,5.9,8.5,7.9s7.9,3,12.8,3,8-.8,11.5-2.5,6.4-4,8.8-7,4.3-6.4,5.6-10.3c1.3-3.9,1.9-8,1.9-12.5s-.7-6.7-2-8.7-4.2-3.1-8.4-3.1-.5-.3-.5-.8c0-.6.1-.8.5-.8h30.7c.3-.1.4.1.4.7s-.1.8-.4.8c-3.1,0-5.4.3-7,.9-1.5.6-2.7,1.6-3.4,3s-1.3,3.1-1.9,5.1c-.8,3.1-2,6.5-3.3,10.1-1.4,3.6-3.1,7.2-5.3,10.7-2.2,3.5-4.8,6.8-8,9.7s-7,5.3-11.4,7.1-9.6,2.7-15.5,2.7-11.5-1-15.5-3c-4-2-7-4.6-8.9-7.8-1.9-3.2-2.9-6.5-2.9-9.9h0Z"/>
        <path class="st0" d="M851.4,89.3c-3.3,0-5.8-.2-7.4-.7-1.6-.5-2.7-1.4-3.2-2.8-.5-1.4-.8-3.5-.8-6.2v-31.7c1,0,2.2.2,3.4.2,1.2,0,2.4,0,3.5,0,2.2,0,4.3-.2,6.4-.5,5.6,8.6,10.7,16.1,15.2,22.5,0,0,0,0,0,0,2.3,0,11-.1,13-.1-5.2-6.4-11.5-14.9-18.8-25.5,4.7-2.3,8.6-5.5,11.5-9.6,3-4.1,4.5-8.8,4.5-14.1s-2.1-10-6.3-13.3c-4.2-3.3-10.2-5-18.1-5s-6.1.1-9.9.4c-3.8.3-7.1.4-10.1.4s-6.2,0-9.1-.2c-2.9-.1-5.5-.2-7.8-.2s-.3.3-.3.8,0,.8.3.8c3.3,0,5.7.3,7.3.8,1.6.5,2.7,1.5,3.2,2.8s.8,3.4.8,6.1v65.2c0,2.7-.3,4.8-.9,6.2-.6,1.4-1.7,2.3-3.4,2.8s-4.1.7-7.2.7-.4.3-.4.8.1.8.4.8c2.3,0,5,0,7.9-.1,2.9,0,6-.1,9.2-.1s6.5,0,9.3.1c2.8,0,5.4.1,7.8.1s.4-.3.4-.8-.1-.8-.4-.8h0ZM840,14.7c0-3.9.8-6.6,2.3-7.8s4.1-1.9,7.7-1.9,6.5.6,9.1,1.8c2.6,1.2,4.6,3.3,6,6.3,1.4,3,2.1,7.1,2.1,12.3s-1.4,11.5-4.2,14.7c-2.8,3.2-7.7,4.8-14.7,4.8s-2.5,0-4-.1-3-.2-4.3-.3V14.7h0Z"/>
        <path class="st0" d="M1006.4,89.3c.5,0,.7.3.7.8s-.2.8-.7.8c-2.7,0-5.5,0-8.4-.3-2.9-.2-5.7-.3-8.4-.3s-5.6,0-7.8.3-4.7.3-7.4.3-.6-.3-.6-.8.2-.8.6-.8c4.6,0,7.4-.7,8.5-2.2,1-1.5.5-4.3-1.5-8.7l-30.3-63,4.5-6.8-27.5,63.7c-2.4,5.7-2.6,10-.4,12.8,2.2,2.8,6.2,4.2,12.1,4.2s.7.3.7.8-.2.8-.7.8c-2.8,0-5.4,0-7.8-.3s-5.3-.3-8.9-.3-6.3,0-8.4.3-4.7.3-7.7.3-.6-.3-.6-.8.2-.8.6-.8c2.5,0,4.7-.5,6.6-1.5,1.9-1,3.7-2.8,5.4-5.4s3.6-6.4,5.7-11.3L954.8,2c0-.3.4-.5,1-.5.6,0,.9.1,1,.5l33.8,69.7c2.2,4.6,4.2,8.2,5.8,10.8,1.6,2.6,3.3,4.4,4.9,5.3,1.6,1,3.3,1.5,5.1,1.5h0ZM933.5,54.2l1.7-3.1h38.3l1,3.1h-41Z"/>
        <path class="st0" d="M1023.3,79.6V14.4c0-2.7-.3-4.8-.8-6.1-.6-1.4-1.7-2.3-3.4-2.8-1.7-.5-4.2-.8-7.5-.8s-.4-.3-.4-.8.1-.9.4-.9c2.3,0,5,0,7.9.2,2.9.1,6,.2,9.2.2s7.1,0,10.1-.2,5.6-.2,8-.2.3.3.3.8,0,.8-.3.8c-3.5,0-6.1.3-7.8.8s-2.9,1.5-3.5,3c-.6,1.4-.9,3.5-.9,6.2v64.9c0,2.7.3,4.8.8,6.2.6,1.4,1.7,2.3,3.5,2.8s4.4.7,7.9.7.3.3.3.8,0,.8-.3.8c-2.4,0-5.1,0-8-.1s-6.2-.1-10-.1-6.3,0-9.3.1-5.7.1-8,.1-.3-.3-.3-.8,0-.8.3-.8c3.4,0,5.9-.2,7.7-.7,1.7-.5,2.9-1.4,3.5-2.8.6-1.4.8-3.5.8-6.2h0ZM1028.5,46.8v-3.2h62.2v3.2h-62.2ZM1085.8,14.7c0-2.7-.3-4.8-.8-6.2-.6-1.4-1.7-2.4-3.4-3-1.7-.6-4.3-.8-7.9-.8s-.4-.3-.4-.8.1-.9.4-.9c2.2,0,4.9,0,7.8.2s6.3.2,9.9.2,6.3,0,9.4-.2c3.1-.1,5.7-.2,8-.2s.4.3.4.8-.1.8-.4.8c-3.3,0-5.8.3-7.5.8-1.7.5-2.9,1.5-3.4,2.8-.6,1.4-.8,3.4-.8,6.1v65.2c0,2.7.3,4.8.8,6.2.6,1.4,1.7,2.3,3.4,2.8s4.2.7,7.5.7.4.3.4.8-.1.8-.4.8c-2.2,0-4.9,0-8-.1-3.1,0-6.2-.1-9.4-.1s-7,0-9.9.1c-3,0-5.6.1-7.8.1s-.4-.3-.4-.8.1-.8.4-.8c3.6,0,6.2-.2,7.9-.7,1.7-.5,2.8-1.4,3.4-2.8.6-1.4.8-3.5.8-6.2V14.7Z"/>
        <path class="st0" d="M1194.4,19.2c0-4.7-1.1-8.3-3.2-10.8-2.1-2.5-5.2-3.7-9.4-3.7s-.4-.3-.4-.8.1-.9.4-.9c2.2,0,4.4,0,6.8.2s4.9.2,7.6.2,4.7,0,7-.2c2.3-.1,4.4-.2,6.4-.2s.3.3.3.8,0,.8-.3.8c-3.8,0-6.6,1.2-8.5,3.7-1.9,2.5-2.9,6.1-2.9,10.8v39.9c0,7-1.4,13.1-4.2,18.2-2.8,5.1-6.8,8.9-11.8,11.6s-11,4-17.8,4-13.1-1.3-18.3-4c-5.3-2.7-9.3-6.5-12.2-11.5-2.9-5-4.4-10.9-4.4-17.8V14.4c0-2.7-.3-4.8-.8-6.1-.6-1.4-1.7-2.3-3.3-2.8-1.6-.5-4.1-.8-7.2-.8s-.4-.3-.4-.8.1-.9.4-.9c2.3,0,4.9,0,7.8.2s5.9.2,9.2.2,6.5,0,9.4-.2c2.9-.1,5.4-.2,7.5-.2s.4.3.4.8-.1.8-.4.8c-3.2,0-5.6.3-7.2.8s-2.7,1.5-3.2,3c-.5,1.4-.8,3.5-.8,6.2v40c0,11.3,2.4,19.7,7.3,25.3,4.9,5.6,11.6,8.4,20.3,8.4s14.7-2.6,19.3-7.7c4.6-5.1,6.9-12.3,6.9-21.5V19.2h0Z"/>
        <path class="st0" d="M1239.7,14.5v64.5c0,2.5.3,4.4.8,5.6.5,1.2,1.5,2,3,2.5,1.4.4,3.6.6,6.6.6h12c6.1,0,11.1-1.8,14.9-5.3,3.8-3.6,6.4-8.3,7.6-14.2,0-.3.3-.4.8-.3.5,0,.8.2.8.5-.3,2.7-.6,6-.8,9.9-.3,3.8-.4,7.4-.4,10.7s-.7,2.1-2.1,2.1h-65.6c-.2,0-.3-.3-.3-.8s0-.8.3-.8c3.3,0,5.8-.2,7.4-.7,1.6-.5,2.8-1.4,3.3-2.8.6-1.4.8-3.5.8-6.2V14.4c0-2.7-.3-4.8-.8-6.1-.6-1.4-1.7-2.3-3.3-2.8-1.6-.5-4.1-.8-7.4-.8s-.3-.3-.3-.8,0-.9.3-.9c2.2,0,4.9,0,7.8.2s6,.2,9.2.2,6.5,0,9.4-.2c2.9-.1,5.4-.2,7.7-.2s.3.3.3.8,0,.8-.3.8c-3.3,0-5.7.3-7.3.8-1.6.5-2.7,1.5-3.2,2.9-.6,1.4-.8,3.5-.8,6.2h0Z"/>
      </g>
      <path class="st0" d="M881.5,70c36.3,44.1,83.4,51.7,108.2,40.2,0,0-21.9,12.4-52.1,6.8-31.2-5.8-57.1-29.5-69.2-47-9.7-14,0-9.7,0-9.7l13.1,9.6h0Z"/>
      <path class="st0" d="M352.3,89.4c.5,0,.7.3.7.8s-.2.8-.7.8c-2.7,0-5.5,0-8.4-.3-2.9-.2-5.7-.3-8.4-.3s-5.6,0-7.8.3c-2.2.2-4.7.3-7.4.3s-.6-.3-.6-.8.2-.8.6-.8c4.6,0,7.4-.7,8.5-2.2,1-1.5.5-4.3-1.5-8.7l-30.3-63,4.5-6.8-27.5,63.7c-2.4,5.7-2.6,10-.4,12.8,2.2,2.8,6.2,4.2,12.1,4.2s.7.3.7.8-.2.8-.7.8c-2.8,0-5.4,0-7.8-.3s-5.3-.3-8.9-.3-6.3,0-8.4.3c-2.1.2-4.7.3-7.7.3s-.6-.3-.6-.8.2-.8.6-.8c2.5,0,4.7-.5,6.6-1.5,1.9-1,3.7-2.8,5.4-5.4,1.7-2.6,3.6-6.4,5.7-11.3L300.7,2.1c0-.3.4-.5,1-.5.6,0,.9.1,1,.5l33.8,69.7c2.2,4.6,4.2,8.2,5.9,10.8,1.6,2.6,3.3,4.4,4.9,5.3,1.6,1,3.3,1.5,5.1,1.5h0ZM279.5,54.4l1.7-3.1h38.3l1,3.1h-41Z"/>
    </g>
  </g>
</svg>